<?xml version="1.0" encoding="UTF-8" standalone="no"?>
<svg xmlns="http://www.w3.org/2000/svg" width="32" height="32" viewBox="0 0 32 32">
  <circle cx="16" cy="16" r="15" fill="#3498db" />
  <circle cx="16" cy="16" r="13" fill="#ffffff" />
  <circle cx="16" cy="16" r="11" fill="#3498db" />
  
  <!-- Stylized book -->
  <path d="M10,9 L22,9 C23,9 24,10 24,11 L24,23 C24,24 23,25 22,25 L10,25 C9,25 8,24 8,23 L8,11 C8,10 9,9 10,9 Z" fill="#2c3e50" />
  
  <!-- Book pages -->
  <path d="M10,10 L21,10 L21,24 L10,24 Z" fill="#ecf0f1" />
  
  <!-- Arabic letter م (Meem) simplified -->
  <path d="M12,14 C14,14 14,16 16,16 C18,16 18,14 20,14 L20,18 C20,20 18,22 16,22 C14,22 12,20 12,18 Z" fill="#3498db" />
</svg>
