<?xml version="1.0" encoding="UTF-8" standalone="no"?>
<svg xmlns="http://www.w3.org/2000/svg" width="200" height="200" viewBox="0 0 200 200">
  <circle cx="100" cy="100" r="95" fill="#3498db" />
  <circle cx="100" cy="100" r="85" fill="#ffffff" />
  <circle cx="100" cy="100" r="75" fill="#3498db" />
  
  <!-- Stylized book -->
  <path d="M65,60 L135,60 C140,60 145,65 145,70 L145,140 C145,145 140,150 135,150 L65,150 C60,150 55,145 55,140 L55,70 C55,65 60,60 65,60 Z" fill="#2c3e50" />
  
  <!-- Book pages -->
  <path d="M65,65 L130,65 L130,145 L65,145 Z" fill="#ecf0f1" />
  
  <!-- Book binding details -->
  <path d="M130,65 L135,70 L135,140 L130,145 Z" fill="#bdc3c7" />
  
  <!-- Arabic letter م (Meem) -->
  <path d="M75,90 C85,90 85,100 95,100 C105,100 105,90 115,90 L115,110 C115,120 105,130 95,130 C85,130 75,120 75,110 Z" fill="#3498db" stroke="#2c3e50" stroke-width="2" />
  
  <!-- Arabic letter ت (Teh) -->
  <path d="M90,80 L100,80 L100,85 L90,85 Z" fill="#2c3e50" />
  
  <!-- Decorative elements -->
  <circle cx="80" cy="115" r="5" fill="#e74c3c" />
  <circle cx="110" cy="115" r="5" fill="#e74c3c" />
</svg>
