<svg xmlns="http://www.w3.org/2000/svg" viewBox="0 0 512 512">
  <defs>
    <linearGradient id="grad1" x1="0%" y1="0%" x2="100%" y2="100%">
      <stop offset="0%" style="stop-color:#f093fb;stop-opacity:1" />
      <stop offset="100%" style="stop-color:#667eea;stop-opacity:1" />
    </linearGradient>
  </defs>
  <rect width="512" height="512" fill="url(#grad1)" />
  <path fill="white" d="M408 160H104c-4.42 0-8 3.58-8 8v240c0 4.42 3.58 8 8 8h304c4.42 0 8-3.58 8-8V168C416 163.6 412.4 160 408 160zM400 300c0 .9668-.4209 1.781-.9834 2.45c-.6982 .8379-1.686 1.561-2.871 2.002L262.1 348.3c-2.109 .8594-4.98 .8594-7.08 0l-134-43.83C119.1 303.1 118.3 303.2 117.6 302.3C117 301.7 116.6 300.9 116.6 300v-19.72c0-1.047 .4209-1.969 1.029-2.598c.6084-.7188 1.516-1.276 2.576-1.599l134-43.83c1.863-.6016 4.777-.6016 6.656 0l133.1 43.83c1.061 .3232 1.951 .8779 2.559 1.599c.6084 .6299 1.029 1.548 1.029 2.597V300zM296 88h-80C202.8 88 192 98.8 192 112v32h128v-32C320 98.8 309.2 88 296 88z"/>
</svg>
