<svg xmlns="http://www.w3.org/2000/svg" viewBox="0 0 512 512"><defs><linearGradient id="a" x1="0%" x2="100%" y1="0%" y2="100%"><stop offset="0%" style="stop-color:#764ba2;stop-opacity:1"/><stop offset="100%" style="stop-color:#f093fb;stop-opacity:1"/></linearGradient></defs><path fill="url(#a)" d="M383.7 217.5 260.9 88.4c-2.9-3.1-7-4.9-11.3-4.9s-8.3 1.8-11.3 4.9L115.7 217.5c-3.7 3.9-5 9.4-3.4 14.5s5.8 8.8 11 9.6l105 15.4c8.2 1.2 14.5 8.2 14.5 16.6v180.8c0 5.8 3.1 11.2 8.2 14s11.3 2.5 16-.8l96-67.2c3.8-2.7 6.1-7.1 6.1-11.8V241.9c0-8.4 6.3-15.3 14.5-16.6l105-15.4c5.3-.8 9.5-4.5 11.1-9.6-111 26.6-112.3 21.1-116 17.2M296 96c0-12.2 10.2-24 22.4-24 13.3 0 25.6 11.7 25.6 24 0 12.2-12.3 24-25.6 24-12.2 0-22.4-11.8-22.4-24"/></svg>