<svg xmlns="http://www.w3.org/2000/svg" viewBox="0 0 512 512"><defs><linearGradient id="a" x1="0%" x2="100%" y1="0%" y2="100%"><stop offset="0%" style="stop-color:#667eea;stop-opacity:1"/><stop offset="100%" style="stop-color:#764ba2;stop-opacity:1"/></linearGradient></defs><path fill="url(#a)" d="M256 0C114.6 0 0 114.6 0 256s114.6 256 256 256 256-114.6 256-256S397.4 0 256 0M80 256c0-8.84 7.16-16 16-16h32c8.84 0 16 7.16 16 16s-7.16 16-16 16H96c-8.84 0-16-7.2-16-16m288 48c0 8.84-7.16 16-16 16H160c-8.84 0-16-7.16-16-16s7.16-16 16-16h192c8.8 0 16 7.2 16 16m0-96c0 8.84-7.16 16-16 16H160c-8.84 0-16-7.16-16-16s7.16-16 16-16h192c8.8 0 16 7.2 16 16"/></svg>