<svg xmlns="http://www.w3.org/2000/svg" width="200" height="200" viewBox="0 0 512 512"><path fill="rgba(102, 126, 234, 0.05)" d="M475 0H37C16.58 0 0 16.58 0 37v438c0 20.42 16.58 37 37 37h438c20.42 0 37-16.58 37-37V37c0-20.42-16.58-37-37-37M258 46c22.09 0 40 17.91 40 40s-17.91 40-40 40-40-17.91-40-40 17.91-40 40-40m-128 0c22.09 0 40 17.91 40 40s-17.91 40-40 40-40-17.91-40-40 17.91-40 40-40M46 150h420v236H46zm134 272c-22.09 0-40-17.91-40-40s17.91-40 40-40 40 17.91 40 40-17.91 40-40 40m128 0c-22.09 0-40-17.91-40-40s17.91-40 40-40 40 17.91 40 40-17.91 40-40 40"/></svg>