<svg xmlns="http://www.w3.org/2000/svg" viewBox="0 0 512 512"><defs><linearGradient id="a" x1="0%" x2="100%" y1="0%" y2="100%"><stop offset="0%" style="stop-color:#f093fb;stop-opacity:1"/><stop offset="100%" style="stop-color:#667eea;stop-opacity:1"/></linearGradient></defs><path fill="url(#a)" d="M0 0h512v512H0z"/><path fill="#fff" d="M408 160H104c-4.42 0-8 3.58-8 8v240c0 4.42 3.58 8 8 8h304c4.42 0 8-3.58 8-8V168c0-4.4-3.6-8-8-8m-8 140c0 .967-.42 1.781-.983 2.45-.699.838-1.686 1.561-2.871 2.002L262.1 348.3c-2.109.86-4.98.86-7.08 0l-134-43.83c-1.92-1.37-2.72-1.27-3.42-2.17-.6-.6-1-1.4-1-2.3v-19.72c0-1.047.42-1.969 1.029-2.598.608-.719 1.516-1.276 2.576-1.599l134-43.83c1.863-.602 4.777-.602 6.656 0l133.1 43.83c1.061.323 1.951.878 2.559 1.599a3.74 3.74 0 0 1 1.029 2.597V300zM296 88h-80c-13.2 0-24 10.8-24 24v32h128v-32c0-13.2-10.8-24-24-24"/></svg>