<svg xmlns="http://www.w3.org/2000/svg" viewBox="0 0 512 512">
  <defs>
    <linearGradient id="grad" x1="0%" y1="0%" x2="100%" y2="100%">
      <stop offset="0%" style="stop-color:#667eea;stop-opacity:1" />
      <stop offset="100%" style="stop-color:#764ba2;stop-opacity:1" />
    </linearGradient>
  </defs>
  <path fill="url(#grad)" d="M256 0C114.6 0 0 114.6 0 256s114.6 256 256 256s256-114.6 256-256S397.4 0 256 0zM80 256c0-8.84 7.16-16 16-16h32c8.84 0 16 7.16 16 16s-7.16 16-16 16H96C87.16 272 80 264.8 80 256zM368 304c0 8.84-7.16 16-16 16h-192c-8.84 0-16-7.16-16-16s7.16-16 16-16h192C360.8 288 368 295.2 368 304zM368 208c0 8.84-7.16 16-16 16h-192c-8.84 0-16-7.16-16-16s7.16-16 16-16h192C360.8 192 368 199.2 368 208z"/>
</svg>
